# xmcd
#
# Track frame offsets:
#	150
#	33967
#	57097
#	76111
#	100857
#	117733
#	131445
#	141871
#	156917
#	181669
#	201080
#	226177
#	245326
#	265294
#	289055
#	305719
#	331455
#
# Disc length: 4746 seconds
#
# Revision: 0
# Processed by: cddbd v1.5.1PL0 Copyright (c) Steve Scherf et al.
# Submitted via: dBpowerAMP V4.0
#
DISCID=eb128811
DTITLE=Lynyrd Skynyrd - Skynyrd's First
DYEAR=1971
DGENRE=Southern Rock
TTITLE0=01_Lynyrd Skynyrd - Free Bird (Original Version)
TTITLE1=02_Lynyrd Skynyrd - One More Time (Original Version)
TTITLE2=03_Lynyrd Skynyrd - Gimme Three Steps (Original Version)
TTITLE3=04_Lynyrd Skynyrd - Was I Right Or Wrong
TTITLE4=05_Lynyrd Skynyrd - Preacher's Daughter
TTITLE5=06_Lynyrd Skynyrd - White Dove
TTITLE6=07_Lynyrd Skynyrd - Down South Jukin'
TTITLE7=08_Lynyrd Skynyrd - Wino (Original Version)
TTITLE8=09_Lynyrd Skynyrd - Simple Man (Original Version)
TTITLE9=10_Lynyrd Skynyrd - Trust (Original Version)
TTITLE10=11_Lynyrd Skynyrd - Comin' Home (Original Version)
TTITLE11=12_Lynyrd Skynyrd - The Seasons
TTITLE12=13_Lynyrd Skynyrd - Lend A Helpin' Hand
TTITLE13=14_Lynyrd Skynyrd - Things Goin' On (Original Version)
TTITLE14=15_Lynyrd Skynyrd - I Ain't The One (Original Version)
TTITLE15=16_Lynyrd Skynyrd - You Run Around
TTITLE16=17_Lynyrd Skynyrd - Ain't Too Proud To Pray
EXTD=Lynyrd Skynyrd's First Album - Muscle Shoals
EXTT0=
EXTT1=
EXTT2=
EXTT3=
EXTT4=
EXTT5=
EXTT6=
EXTT7=
EXTT8=
EXTT9=
EXTT10=
EXTT11=
EXTT12=
EXTT13=
EXTT14=
EXTT15=
EXTT16=
PLAYORDER=
